<svg xmlns="http://www.w3.org/2000/svg" viewBox="0 0 529.96 254.5"><defs><style>.cls-1{fill:#333;}</style></defs><g id="Layer_2" data-name="Layer 2"><g id="Layer_1-2" data-name="Layer 1"><path class="cls-1" d="M27.6,52.43V141.5a.51.51,0,0,1-.5.5H.5a.51.51,0,0,1-.5-.5V.5A.51.51,0,0,1,.5,0H21.16a.49.49,0,0,1,.39.19l73,91.88a.51.51,0,0,0,.9-.32V.7a.51.51,0,0,1,.5-.5h26.6a.51.51,0,0,1,.5.5V142H100.6L28.5,52.12A.51.51,0,0,0,27.6,52.43Z"/><path class="cls-1" d="M194.4,121.4a30.93,30.93,0,0,0,14.1-2.9,24.55,24.55,0,0,0,9.1-7.7,30.62,30.62,0,0,0,4.8-10.9,55.89,55.89,0,0,0,1.4-12.5V30.7a.5.5,0,0,1,.5-.5h23.19a.51.51,0,0,1,.51.5V87.4a73.81,73.81,0,0,1-3.1,21.7,49,49,0,0,1-9.5,17.6,43.74,43.74,0,0,1-16.6,11.8q-10.2,4.31-24.2,4.3-14.61,0-24.7-4.5a44.61,44.61,0,0,1-16.5-12.2,48.32,48.32,0,0,1-9.3-17.7,74.82,74.82,0,0,1-2.9-21V30.7a.5.5,0,0,1,.5-.5h23.19a.51.51,0,0,1,.51.5V87.4a53,53,0,0,0,1.5,12.7,31.7,31.7,0,0,0,4.9,10.9,24,24,0,0,0,8.9,7.6Q186.19,121.41,194.4,121.4Z"/><path class="cls-1" d="M264.8,141.5V30.7a.5.5,0,0,1,.5-.5h54.5a37.48,37.48,0,0,1,15.8,3.3,42.73,42.73,0,0,1,12.5,8.6,38.29,38.29,0,0,1,8.2,12.1,34.49,34.49,0,0,1,2.9,13.6,33.7,33.7,0,0,1-6,19.4A35.39,35.39,0,0,1,337.57,100a.5.5,0,0,0-.22.75l28.29,40.5a.5.5,0,0,1-.41.79H338.86a.53.53,0,0,1-.42-.21l-25.69-36.18a.52.52,0,0,0-.41-.21H289.5a.5.5,0,0,0-.5.5v35.6a.51.51,0,0,1-.51.5H265.3A.5.5,0,0,1,264.8,141.5ZM289,83.7a.5.5,0,0,0,.5.5h29.7a14.77,14.77,0,0,0,11.1-4.7,16.24,16.24,0,0,0,4.5-11.7,15.46,15.46,0,0,0-1.4-6.6,17.38,17.38,0,0,0-3.7-5.2,16.73,16.73,0,0,0-11.5-4.6H289.5a.5.5,0,0,0-.5.5Z"/><path class="cls-1" d="M192.27,252.4l48.36-110.79a.51.51,0,0,1,.47-.31h19.14a.5.5,0,0,1,.46.31L308.86,252.4a.5.5,0,0,1-.46.7H283.9a.49.49,0,0,1-.46-.3L272.5,227.21a.5.5,0,0,0-.47-.31H229.3a.51.51,0,0,0-.47.31L217.9,252.8a.51.51,0,0,1-.47.3H192.74A.5.5,0,0,1,192.27,252.4Zm58-80.7-15.6,33.49a.5.5,0,0,0,.46.71h30.63a.5.5,0,0,0,.46-.71l-15-33.48A.51.51,0,0,0,250.3,171.7Z"/><path class="cls-1" d="M179.69,231.9h-56.2a.5.5,0,0,1-.5-.5V141.3h-22.4V252.6a.5.5,0,0,0,.5.5h78.6a.5.5,0,0,0,.5-.5V232.41A.51.51,0,0,0,179.69,231.9Z"/><path class="cls-1" d="M422.16,224.5a23.88,23.88,0,0,1-3.2,12.4,27.66,27.66,0,0,1-8.6,9,40,40,0,0,1-12.6,5.4,63.31,63.31,0,0,1-15.4,1.8H323.87a.5.5,0,0,1-.51-.5V141.81a.51.51,0,0,1,.51-.51h65.29a25.86,25.86,0,0,1,11.5,2.5,27.7,27.7,0,0,1,8.7,6.6,31,31,0,0,1,5.6,9.2,28.59,28.59,0,0,1,2,10.5,27.71,27.71,0,0,1-4.5,15.1,26.1,26.1,0,0,1-11.77,10,.5.5,0,0,0,.06.94,31.06,31.06,0,0,1,15.31,9.71Q422.17,213.1,422.16,224.5Zm-74.6-61.89v24a.5.5,0,0,0,.51.5H379a15.55,15.55,0,0,0,9.9-3.2q4.09-3.19,4.1-9.4a11.41,11.41,0,0,0-3.8-9.1,13.54,13.54,0,0,0-9.2-3.3H348.07A.51.51,0,0,0,347.56,162.61Zm50.2,56.89a12.86,12.86,0,0,0-4-9.4,13.84,13.84,0,0,0-10.2-4H348.07a.51.51,0,0,0-.51.51V232.2a.5.5,0,0,0,.51.5h34.29a16.58,16.58,0,0,0,10.9-3.7A11.73,11.73,0,0,0,397.76,219.5Z"/><path class="cls-1" d="M515.25,172.16a.5.5,0,0,1-.75.17,43.91,43.91,0,0,0-4-2.73,49.2,49.2,0,0,0-7.4-3.6,66.14,66.14,0,0,0-9.6-2.9,51.06,51.06,0,0,0-11.3-1.2q-8.6,0-13.3,2.7a8.62,8.62,0,0,0-4.7,7.9,7.57,7.57,0,0,0,1.9,5.3,16.31,16.31,0,0,0,5.4,3.7,51.36,51.36,0,0,0,8.5,2.9q5,1.31,11.4,2.7a137.68,137.68,0,0,1,16,4.6,45.91,45.91,0,0,1,12.2,6.4,26.23,26.23,0,0,1,7.7,9.2,29.3,29.3,0,0,1,2.7,13.2q0,9.41-3.7,15.8a31.08,31.08,0,0,1-9.9,10.5,42.13,42.13,0,0,1-14.3,5.9,78.65,78.65,0,0,1-17.1,1.8,97.59,97.59,0,0,1-26.9-3.8,93.78,93.78,0,0,1-23.5-10.15.52.52,0,0,1-.18-.67l10.47-20a.51.51,0,0,1,.79-.14,36,36,0,0,0,5.42,3.94,52.48,52.48,0,0,0,9.3,4.4,77.91,77.91,0,0,0,11.8,3.3,66,66,0,0,0,13.2,1.3q18.6,0,18.6-10a7.21,7.21,0,0,0-1.8-5A17.52,17.52,0,0,0,497,214a48.82,48.82,0,0,0-8.4-3.1q-5-1.4-11.6-3a148.64,148.64,0,0,1-17.1-5.4,44.65,44.65,0,0,1-11.7-6.5,23.11,23.11,0,0,1-6.8-8.6,27.79,27.79,0,0,1-2.2-11.5,32.61,32.61,0,0,1,3.5-15.3,32,32,0,0,1,9.5-11.1,44.23,44.23,0,0,1,14-6.7,61.36,61.36,0,0,1,17-2.3,71.65,71.65,0,0,1,23.7,3.8,97.84,97.84,0,0,1,18.3,8.35.52.52,0,0,1,.18.68Z"/></g></g></svg>